<svg width="16" height="16" viewBox="0 0 16 16" fill="none" xmlns="http://www.w3.org/2000/svg">
<path d="M14 3.5H12V2.5C12 1.39544 11.1046 0.5 10 0.5H6C4.89544 0.5 4 1.39544 4 2.5V3.5H2C0.895437 3.5 0 4.39544 0 5.5V13.5C0 14.6046 0.895437 15.5 2 15.5H14C15.1046 15.5 16 14.6046 16 13.5V5.5C16 4.39544 15.1046 3.5 14 3.5ZM6 2H10C10.2762 2 10.5 2.22384 10.5 2.5V3.5H5.5V2.5C5.5 2.22384 5.72384 2 6 2ZM2 5H14C14.275 5 14.5 5.225 14.5 5.5V8.5H1.5V5.5C1.5 5.225 1.725 5 2 5ZM14 14H2C1.725 14 1.5 13.775 1.5 13.5V10H6V10.5C6 11.0523 6.44772 11.5 7 11.5H9C9.55228 11.5 10 11.0523 10 10.5V10H14.5V13.5C14.5 13.775 14.275 14 14 14Z" fill="#C8C8C8"/>
</svg>
