<svg width="73" height="24" viewBox="0 0 73 24" fill="none" xmlns="http://www.w3.org/2000/svg">
<path d="M25.7476 4.24376H21.898V6.05533C21.898 7.35739 21.1904 8.34809 19.7185 8.34809H19.0108V12.1127H21.5017V18.1419C21.5017 20.9441 23.285 22.6708 26.2005 22.6708C27.5591 22.6708 28.2668 22.3594 28.4366 22.2745V18.708C28.1819 18.7646 27.7573 18.8495 27.3044 18.8495C26.3703 18.8495 25.7476 18.5381 25.7476 17.3776V12.1127H28.4932V8.34809H25.7476V4.24376ZM35.8448 22.416V8.34809H31.5423V22.416H35.8448ZM31.1743 4.04562C31.1743 5.4326 32.3065 6.56483 33.6652 6.56483C35.0805 6.56483 36.2127 5.4326 36.2127 4.04562C36.2127 2.65864 35.0805 1.52641 33.6652 1.52641C32.3065 1.52641 31.1743 2.65864 31.1743 4.04562ZM42.4727 22.416C41.2461 22.416 40.3403 22.1047 39.7554 21.4819C39.1704 20.8592 38.8779 20.0195 38.8779 18.9627V3.22476C38.8779 3.05492 38.9345 2.91339 39.0477 2.80017C39.1609 2.66808 39.3119 2.60203 39.5006 2.60203H42.3312C42.5199 2.60203 42.6708 2.66808 42.7841 2.80017C42.8973 2.91339 42.9539 3.05492 42.9539 3.22476V18.1419C42.9539 18.406 43.0294 18.6231 43.1803 18.7929C43.3313 18.9439 43.5389 19.0193 43.8031 19.0193H44.6806C45.0768 19.0193 45.275 19.2175 45.275 19.6138V21.6518C45.275 22.1613 45.0108 22.416 44.4824 22.416H42.4727ZM50.2402 22.416C49.0136 22.416 48.1078 22.1047 47.5228 21.4819C46.9379 20.8592 46.6454 20.0195 46.6454 18.9627V3.22476C46.6454 3.05492 46.702 2.91339 46.8152 2.80017C46.9284 2.66808 47.0794 2.60203 47.2681 2.60203H50.0987C50.2874 2.60203 50.4383 2.66808 50.5515 2.80017C50.6648 2.91339 50.7214 3.05492 50.7214 3.22476V18.1419C50.7214 18.406 50.7969 18.6231 50.9478 18.7929C51.0988 18.9439 51.3064 19.0193 51.5706 19.0193H52.448C52.8443 19.0193 53.0424 19.2175 53.0424 19.6138V21.6518C53.0424 22.1613 52.7783 22.416 52.2499 22.416H50.2402ZM59.4513 22.416V8.34809H55.1488V22.416H59.4513ZM54.7808 4.04562C54.7808 5.4326 55.913 6.56483 57.2717 6.56483C58.687 6.56483 59.8192 5.4326 59.8192 4.04562C59.8192 2.65864 58.687 1.52641 57.2717 1.52641C55.913 1.52641 54.7808 2.65864 54.7808 4.04562ZM68.372 4.24376H64.5224V6.05533C64.5224 7.35739 63.8148 8.34809 62.3429 8.34809H61.6352V12.1127H64.1261V18.1419C64.1261 20.9441 65.9094 22.6708 68.8249 22.6708C70.1835 22.6708 70.8912 22.3594 71.061 22.2745V18.708C70.8063 18.7646 70.3817 18.8495 69.9288 18.8495C68.9947 18.8495 68.372 18.5381 68.372 17.3776V12.1127H71.1176V8.34809H68.372V4.24376Z" fill="black"/>
<path d="M1.24218 8.64994C0.780642 8.64994 0.406494 9.02409 0.406494 9.48562L0.406493 13.0061C0.406493 13.4676 0.780643 13.8418 1.24218 13.8418L10.1212 13.8418L10.1212 4.07962C10.1212 3.61808 9.74705 3.24393 9.28552 3.24393L6.11885 3.24393C5.65731 3.24393 5.28315 3.61809 5.28317 4.07964L5.2832 5.30711C5.28325 7.15329 3.78663 8.64994 1.94046 8.64994L1.24218 8.64994Z" fill="#3DCFFF"/>
<path d="M13.4301 13.8409C13.8916 13.8409 14.2657 13.4667 14.2657 13.0052V9.20043C14.2657 8.73889 13.8916 8.36474 13.43 8.36474L9.30481 8.36477C6.67936 8.36479 4.55103 10.4931 4.55103 13.1186V17.6254C4.55103 20.315 6.7313 22.4952 9.42081 22.4952C9.80503 22.4952 10.1165 22.1838 10.1165 21.7995L10.1163 13.8409L13.4301 13.8409Z" fill="#542EDA"/>
<path fill-rule="evenodd" clip-rule="evenodd" d="M10.1213 8.36475L9.30481 8.36475C6.67936 8.36477 4.55103 10.4931 4.55103 13.1186V13.8423L10.1163 13.8423V13.8409H10.1213L10.1213 8.36475Z" fill="#1425DA"/>
</svg>
