<svg width="16" height="16" viewBox="0 0 16 16" fill="none" xmlns="http://www.w3.org/2000/svg">
<path d="M8 9C10.4854 9 12.5 6.98522 12.5 4.5C12.5 2.01478 10.4854 0 8 0C5.51491 0 3.5 2.01478 3.5 4.5C3.5 6.98522 5.51491 9 8 9ZM8 1.5C9.65425 1.5 11 2.84575 11 4.5C11 6.15419 9.65425 7.5 8 7.5C6.34581 7.5 5 6.15419 5 4.5C5 2.84575 6.34581 1.5 8 1.5ZM10.9999 10H5.00006C2.23872 10 0 12.2385 0 15C0 15.5522 0.447812 16 0.999937 16H15.0001C15.5522 16 16 15.5522 16 15C16 12.2385 13.7615 10 10.9999 10ZM1.53566 14.5C1.779 12.8061 3.23987 11.5 5.00006 11.5H10.9999C12.7601 11.5 14.2211 12.8061 14.4644 14.5H1.53566Z" fill="#C8C8C8"/>
</svg>
