<svg width="72" height="24" viewBox="0 0 720 240" fill="none" xmlns="http://www.w3.org/2000/svg">
<path d="M0 60.3965V0H48.9124V60.3965H88.8358V101.764H48.9124V168.173C48.9124 185.933 56.6807 193.324 75.2413 193.324H97.4364V236.594H66.1413C19.2265 236.594 0 215.469 0 175.205V60.3965Z" fill="#0E113A"/>
<path d="M173.423 234.813L114.717 60.4074H164.656L202.443 183.489L249.608 60.4074H300.573L347.461 183.489L385.248 60.4074H435.547L376.813 234.813H322.574L274.994 111.703L227.829 234.813H173.423Z" fill="#0E113A"/>
<path d="M460.652 213.718C443.091 195.93 434.323 174.143 434.323 147.53C434.323 120.917 443.091 99.2127 460.319 81.7832C477.548 64.3537 501.491 55.2805 531.177 55.2805C560.863 55.2805 584.834 63.9952 602.035 81.4522C619.236 98.9093 628.364 121.027 628.364 147.64C628.364 174.253 619.569 196.261 602.035 213.828C584.501 231.396 561.196 240 531.177 240C501.824 239.89 478.187 231.147 460.652 213.718ZM531.177 197.033C546.353 197.033 558.505 192.317 567.244 183.244C575.984 174.171 580.423 162.119 580.423 147.695C580.423 133.272 576.011 121.193 567.244 112.147C558.477 103.101 546.325 98.3578 531.177 98.3578C516.029 98.3578 503.85 103.046 495.11 112.147C486.371 121.248 481.96 133.272 481.96 147.695C481.96 162.119 486.343 174.198 495.11 183.244C503.877 192.289 516.001 197.033 531.177 197.033Z" fill="#0E113A"/>
<circle cx="692" cy="212" r="28" fill="#FBCE49"/>
</svg>
