<svg width="96" height="32" viewBox="0 0 96 32" fill="none" xmlns="http://www.w3.org/2000/svg">
<g clip-path="url(#clip0_18_5683)">
<path d="M0 8.05287V0H6.52165V8.05287H11.8448V13.5685H6.52165V22.423C6.52165 24.7911 7.55742 25.7765 10.0322 25.7765H12.9915V31.5459H8.81884C2.56353 31.5459 0 28.7292 0 23.3607V8.05287Z" fill="white"/>
<path d="M23.1231 31.3085L15.2957 8.05444H21.9542L26.9925 24.4654L33.2811 8.05444H40.0764L46.3281 24.4654L51.3663 8.05444H58.073L50.2418 31.3085H43.0099L36.6658 14.8939L30.3772 31.3085H23.1231Z" fill="white"/>
<path d="M61.4202 28.4958C59.0786 26.1241 57.9097 23.2192 57.9097 19.6708C57.9097 16.1224 59.0786 13.2285 61.3758 10.9046C63.673 8.58062 66.8654 7.37085 70.8235 7.37085C74.7816 7.37085 77.9777 8.53281 80.2712 10.8604C82.5647 13.188 83.7817 16.1371 83.7817 19.6855C83.7817 23.2339 82.6091 26.1682 80.2712 28.5105C77.9333 30.8529 74.826 32.0001 70.8235 32.0001C66.9098 31.9854 63.7581 30.8198 61.4202 28.4958ZM70.8235 26.2712C72.8469 26.2712 74.4672 25.6424 75.6324 24.4326C76.7976 23.2229 77.3895 21.616 77.3895 19.6928C77.3895 17.7697 76.8013 16.1591 75.6324 14.953C74.4635 13.747 72.8432 13.1145 70.8235 13.1145C68.8037 13.1145 67.1798 13.7396 66.0146 14.953C64.8493 16.1665 64.2612 17.7697 64.2612 19.6928C64.2612 21.616 64.8456 23.2265 66.0146 24.4326C67.1835 25.6387 68.8 26.2712 70.8235 26.2712Z" fill="white"/>
<circle cx="92.2668" cy="28.2668" r="3.73333" fill="#FBCE49"/>
</g>
<defs>
<clipPath id="clip0_18_5683">
<rect width="96" height="32" fill="white"/>
</clipPath>
</defs>
</svg>